<svg width="277" height="150" viewBox="0 0 277 150" fill="none" xmlns="http://www.w3.org/2000/svg">
<rect width="277" height="150" fill="white"/>
<g clip-path="url(#clip0_515_4)">
<path d="M182.52 59.3773L168.291 41.0108C167.332 39.7672 165.975 38.8425 164.417 38.3711L141.394 31.3555C139.838 30.8815 138.162 30.8815 136.606 31.3555L113.581 38.3711C112.024 38.8426 110.667 39.7672 109.708 41.0108L95.4799 59.3773C94.5153 60.6171 93.9969 62.1129 94 63.6477V86.3512C93.9962 87.887 94.5146 89.3839 95.4799 90.6244L109.709 108.991C110.668 110.235 112.025 111.159 113.582 111.631L136.607 118.646C138.163 119.12 139.839 119.12 141.395 118.646L164.419 111.631C165.977 111.159 167.334 110.235 168.293 108.991L182.523 90.6244C183.488 89.3838 184.006 87.8869 184.002 86.3512V63.6477C184.005 62.1127 183.485 60.6169 182.52 59.3773ZM117.511 44.1007L139 37.5523L160.492 44.1007C160.621 44.14 160.746 44.1861 160.872 44.2323L153.261 54.0573H124.74L117.128 44.2323C117.253 44.1861 117.379 44.14 117.511 44.1007ZM137.348 112.135C137.218 112.103 137.087 112.071 136.958 112.032L117.511 106.104C116.184 105.699 115.027 104.911 114.207 103.853L102.183 88.3351C102.104 88.2326 102.031 88.126 101.958 88.0189L114.273 84.2664L137.348 99.992V112.135ZM123.869 86.9757L116.505 81.9571L125.097 57.1557H152.902L161.494 81.9571L154.13 86.9757L139.003 57.1557L123.869 86.9757ZM175.817 88.3351L163.795 103.853C162.975 104.911 161.819 105.699 160.492 106.104L141.041 112.029C140.912 112.069 140.782 112.101 140.652 112.133V99.9897L163.727 84.2641L176.042 88.0166C175.969 88.126 175.896 88.2326 175.817 88.3351Z" fill="black"/>
</g>
<defs>
<clipPath id="clip0_515_4">
<rect width="90" height="88" fill="white" transform="translate(94 31)"/>
</clipPath>
</defs>
</svg>
