<svg xmlns="http://www.w3.org/2000/svg" viewBox="0 0 1481.46 1544.49"><title>ISOTIPO POSITIVO- SVG</title><g id="Capa_2" data-name="Capa 2"><g id="POSITIVO"><path d="M1457.1,498.05,1222.88,175.7a126.77,126.77,0,0,0-63.77-46.33L780.14,6.24a127.57,127.57,0,0,0-78.82,0l-379,123.13a126.75,126.75,0,0,0-63.76,46.33L24.36,498.05A126.75,126.75,0,0,0,0,573V971.47a126.72,126.72,0,0,0,24.36,75l234.22,322.35a126.75,126.75,0,0,0,63.76,46.33l379,123.13a127.54,127.54,0,0,0,78.81,0l379-123.13a126.73,126.73,0,0,0,63.77-46.33l234.22-322.35a126.79,126.79,0,0,0,24.36-75V573A126.82,126.82,0,0,0,1457.1,498.05ZM387,229.93,740.73,115,1094.5,229.93c2.12.69,4.19,1.5,6.26,2.31L975.47,404.68H506L380.7,232.24C382.76,231.43,384.83,230.62,387,229.93ZM713.54,1424c-2.15-.56-4.3-1.12-6.42-1.81L387,1318.15a108.8,108.8,0,0,1-54.38-39.51L134.7,1006.29c-1.31-1.8-2.51-3.67-3.71-5.55l202.72-65.86,379.83,276ZM491.67,982.43,370.45,894.35,511.88,459.06H969.57L1111,894.35,989.78,982.43l-249-523.37Zm855.09,23.86-197.88,272.35a108.76,108.76,0,0,1-54.38,39.51l-320.17,104c-2.12.69-4.26,1.25-6.41,1.81V1210.84l379.83-276,202.71,65.86C1349.27,1002.62,1348.07,1004.49,1346.76,1006.29Z"/></g></g></svg>