<svg width="277" height="150" viewBox="0 0 277 150" fill="none" xmlns="http://www.w3.org/2000/svg">
<rect width="277" height="150" fill="black"/>
<path d="M67.4916 76C67.2649 76 67.0849 75.9333 66.9516 75.8C66.8182 75.6667 66.7382 75.5133 66.7116 75.34L64.5316 62.56C64.5182 62.5333 64.5116 62.5067 64.5116 62.48C64.5116 62.4533 64.5116 62.4333 64.5116 62.42C64.5116 62.3133 64.5516 62.22 64.6316 62.14C64.7249 62.0467 64.8249 62 64.9316 62H67.4116C67.7849 62 67.9916 62.1467 68.0316 62.44L69.3316 70.26L70.7716 65.64C70.8116 65.5333 70.8782 65.42 70.9716 65.3C71.0649 65.1667 71.2182 65.1 71.4316 65.1H72.8716C73.0982 65.1 73.2582 65.1667 73.3516 65.3C73.4449 65.42 73.5049 65.5333 73.5316 65.64L74.9716 70.24L76.2716 62.44C76.3116 62.1467 76.5182 62 76.8916 62H79.3716C79.4916 62 79.5916 62.0467 79.6716 62.14C79.7516 62.22 79.7916 62.3133 79.7916 62.42C79.7916 62.4333 79.7916 62.4533 79.7916 62.48C79.7916 62.5067 79.7916 62.5333 79.7916 62.56L77.6116 75.34C77.5849 75.5133 77.5049 75.6667 77.3716 75.8C77.2382 75.9333 77.0582 76 76.8316 76H74.9316C74.7049 76 74.5316 75.94 74.4116 75.82C74.2916 75.7 74.2116 75.5867 74.1716 75.48L72.1516 69.76L70.1316 75.48C70.0916 75.5867 70.0116 75.7 69.8916 75.82C69.7849 75.94 69.6182 76 69.3916 76H67.4916ZM82.1331 76C81.9865 76 81.8665 75.9533 81.7731 75.86C81.6798 75.7667 81.6331 75.6467 81.6331 75.5V66.1C81.6331 65.9533 81.6798 65.8333 81.7731 65.74C81.8665 65.6467 81.9865 65.6 82.1331 65.6H84.4931C84.6265 65.6 84.7398 65.6467 84.8331 65.74C84.9398 65.8333 84.9931 65.9533 84.9931 66.1V75.5C84.9931 75.6467 84.9398 75.7667 84.8331 75.86C84.7398 75.9533 84.6265 76 84.4931 76H82.1331ZM82.1131 64.1C81.9665 64.1 81.8465 64.0533 81.7531 63.96C81.6598 63.8667 81.6131 63.7467 81.6131 63.6V61.82C81.6131 61.6733 81.6598 61.5533 81.7531 61.46C81.8465 61.3533 81.9665 61.3 82.1131 61.3H84.4931C84.6398 61.3 84.7598 61.3533 84.8531 61.46C84.9598 61.5533 85.0131 61.6733 85.0131 61.82V63.6C85.0131 63.7467 84.9598 63.8667 84.8531 63.96C84.7598 64.0533 84.6398 64.1 84.4931 64.1H82.1131ZM87.8363 76C87.6896 76 87.5696 75.9533 87.4762 75.86C87.3829 75.7667 87.3363 75.6467 87.3363 75.5V66.1C87.3363 65.9667 87.3829 65.8533 87.4762 65.76C87.5696 65.6533 87.6896 65.6 87.8363 65.6H90.1363C90.2829 65.6 90.4029 65.6533 90.4963 65.76C90.5896 65.8533 90.6363 65.9667 90.6363 66.1V66.9C90.9963 66.4867 91.4229 66.1667 91.9163 65.94C92.4229 65.7133 92.9896 65.6 93.6163 65.6H94.4963C94.6296 65.6 94.7429 65.6467 94.8363 65.74C94.9429 65.8333 94.9963 65.9533 94.9963 66.1V68.16C94.9963 68.2933 94.9429 68.4133 94.8363 68.52C94.7429 68.6133 94.6296 68.66 94.4963 68.66H92.5563C92.0096 68.66 91.5829 68.8133 91.2763 69.12C90.9829 69.4133 90.8363 69.8333 90.8363 70.38V75.5C90.8363 75.6467 90.7829 75.7667 90.6763 75.86C90.5829 75.9533 90.4629 76 90.3163 76H87.8363ZM101.14 76.2C99.5668 76.2 98.3135 75.7733 97.3802 74.92C96.4468 74.0667 95.9602 72.8 95.9202 71.12C95.9202 71.0267 95.9202 70.9067 95.9202 70.76C95.9202 70.6133 95.9202 70.5 95.9202 70.42C95.9602 69.3667 96.1935 68.4667 96.6202 67.72C97.0602 66.96 97.6602 66.3867 98.4202 66C99.1935 65.6 100.093 65.4 101.12 65.4C102.293 65.4 103.26 65.6333 104.02 66.1C104.793 66.5667 105.373 67.2 105.76 68C106.147 68.8 106.34 69.7133 106.34 70.74V71.22C106.34 71.3667 106.287 71.4867 106.18 71.58C106.087 71.6733 105.973 71.72 105.84 71.72H99.4402C99.4402 71.7333 99.4402 71.7533 99.4402 71.78C99.4402 71.8067 99.4402 71.8333 99.4402 71.86C99.4535 72.2467 99.5202 72.6 99.6402 72.92C99.7602 73.24 99.9468 73.4933 100.2 73.68C100.453 73.8667 100.76 73.96 101.12 73.96C101.387 73.96 101.607 73.92 101.78 73.84C101.967 73.7467 102.12 73.6467 102.24 73.54C102.36 73.42 102.453 73.32 102.52 73.24C102.64 73.1067 102.733 73.0267 102.8 73C102.88 72.96 103 72.94 103.16 72.94H105.64C105.773 72.94 105.88 72.98 105.96 73.06C106.053 73.1267 106.093 73.2267 106.08 73.36C106.067 73.5867 105.953 73.86 105.74 74.18C105.527 74.5 105.213 74.82 104.8 75.14C104.4 75.4467 103.893 75.7 103.28 75.9C102.667 76.1 101.953 76.2 101.14 76.2ZM99.4402 69.74H102.82V69.7C102.82 69.2733 102.753 68.9 102.62 68.58C102.5 68.26 102.307 68.0133 102.04 67.84C101.787 67.6667 101.48 67.58 101.12 67.58C100.76 67.58 100.453 67.6667 100.2 67.84C99.9602 68.0133 99.7735 68.26 99.6402 68.58C99.5068 68.9 99.4402 69.2733 99.4402 69.7V69.74ZM114.215 76.2C112.948 76.2 111.855 75.9933 110.935 75.58C110.028 75.1533 109.322 74.54 108.815 73.74C108.322 72.9267 108.048 71.94 107.995 70.78C107.982 70.2067 107.975 69.6 107.975 68.96C107.975 68.3067 107.982 67.6867 107.995 67.1C108.048 65.9667 108.328 65.0067 108.835 64.22C109.342 63.4333 110.055 62.8333 110.975 62.42C111.895 62.0067 112.975 61.8 114.215 61.8C115.215 61.8 116.102 61.9267 116.875 62.18C117.648 62.42 118.295 62.7467 118.815 63.16C119.348 63.5733 119.748 64.0267 120.015 64.52C120.295 65.0133 120.442 65.5 120.455 65.98C120.468 66.1 120.428 66.2 120.335 66.28C120.255 66.36 120.155 66.4 120.035 66.4H117.115C116.968 66.4 116.855 66.38 116.775 66.34C116.708 66.2867 116.648 66.2133 116.595 66.12C116.502 65.92 116.362 65.7133 116.175 65.5C116.002 65.2733 115.755 65.08 115.435 64.92C115.128 64.76 114.722 64.68 114.215 64.68C113.455 64.68 112.855 64.88 112.415 65.28C111.988 65.68 111.755 66.32 111.715 67.2C111.675 68.3467 111.675 69.5067 111.715 70.68C111.755 71.6133 112.002 72.2867 112.455 72.7C112.908 73.1133 113.508 73.32 114.255 73.32C114.762 73.32 115.208 73.2333 115.595 73.06C115.995 72.8867 116.308 72.62 116.535 72.26C116.762 71.8867 116.875 71.4133 116.875 70.84V70.46H114.995C114.848 70.46 114.722 70.4133 114.615 70.32C114.522 70.2133 114.475 70.0867 114.475 69.94V68.46C114.475 68.3133 114.522 68.1933 114.615 68.1C114.722 67.9933 114.848 67.94 114.995 67.94H120.035C120.182 67.94 120.302 67.9933 120.395 68.1C120.488 68.1933 120.535 68.3133 120.535 68.46V70.74C120.535 71.8867 120.275 72.8667 119.755 73.68C119.235 74.4933 118.495 75.12 117.535 75.56C116.588 75.9867 115.482 76.2 114.215 76.2ZM126.43 76.2C125.67 76.2 124.99 76.0267 124.39 75.68C123.803 75.3333 123.343 74.8267 123.01 74.16C122.676 73.48 122.51 72.6533 122.51 71.68V66.1C122.51 65.9533 122.556 65.8333 122.65 65.74C122.743 65.6467 122.863 65.6 123.01 65.6H125.51C125.656 65.6 125.776 65.6467 125.87 65.74C125.963 65.8333 126.01 65.9533 126.01 66.1V71.56C126.01 72.8667 126.596 73.52 127.77 73.52C128.316 73.52 128.75 73.3533 129.07 73.02C129.403 72.6733 129.57 72.1867 129.57 71.56V66.1C129.57 65.9533 129.616 65.8333 129.71 65.74C129.803 65.6467 129.923 65.6 130.07 65.6H132.57C132.716 65.6 132.836 65.6467 132.93 65.74C133.023 65.8333 133.07 65.9533 133.07 66.1V75.5C133.07 75.6467 133.023 75.7667 132.93 75.86C132.836 75.9533 132.716 76 132.57 76H130.25C130.116 76 129.996 75.9533 129.89 75.86C129.796 75.7667 129.75 75.6467 129.75 75.5V74.74C129.403 75.22 128.95 75.5867 128.39 75.84C127.843 76.08 127.19 76.2 126.43 76.2ZM138.542 76.2C137.822 76.2 137.176 76.0667 136.602 75.8C136.042 75.52 135.596 75.1467 135.262 74.68C134.929 74.2133 134.762 73.6867 134.762 73.1C134.762 72.1533 135.149 71.4067 135.922 70.86C136.696 70.3 137.722 69.92 139.002 69.72L141.502 69.34V69.06C141.502 68.58 141.402 68.2133 141.202 67.96C141.002 67.7067 140.636 67.58 140.102 67.58C139.729 67.58 139.422 67.6533 139.182 67.8C138.956 67.9467 138.776 68.1467 138.642 68.4C138.522 68.5733 138.356 68.66 138.142 68.66H135.902C135.756 68.66 135.642 68.62 135.562 68.54C135.482 68.4467 135.449 68.34 135.462 68.22C135.462 67.98 135.549 67.7067 135.722 67.4C135.909 67.08 136.189 66.7667 136.562 66.46C136.936 66.1533 137.416 65.9 138.002 65.7C138.589 65.5 139.296 65.4 140.122 65.4C140.989 65.4 141.729 65.5 142.342 65.7C142.956 65.9 143.449 66.18 143.822 66.54C144.209 66.9 144.496 67.3267 144.682 67.82C144.869 68.3 144.962 68.8333 144.962 69.42V75.5C144.962 75.6467 144.909 75.7667 144.802 75.86C144.709 75.9533 144.596 76 144.462 76H142.142C141.996 76 141.876 75.9533 141.782 75.86C141.689 75.7667 141.642 75.6467 141.642 75.5V74.8C141.469 75.0533 141.236 75.2867 140.942 75.5C140.649 75.7133 140.302 75.88 139.902 76C139.516 76.1333 139.062 76.2 138.542 76.2ZM139.482 73.92C139.869 73.92 140.216 73.84 140.522 73.68C140.842 73.5067 141.089 73.2467 141.262 72.9C141.449 72.54 141.542 72.0933 141.542 71.56V71.28L139.842 71.58C139.216 71.6867 138.756 71.8533 138.462 72.08C138.182 72.2933 138.042 72.5467 138.042 72.84C138.042 73.0667 138.109 73.26 138.242 73.42C138.376 73.58 138.549 73.7067 138.762 73.8C138.976 73.88 139.216 73.92 139.482 73.92ZM147.719 76C147.572 76 147.452 75.9533 147.359 75.86C147.266 75.7667 147.219 75.6467 147.219 75.5V66.1C147.219 65.9667 147.266 65.8533 147.359 65.76C147.452 65.6533 147.572 65.6 147.719 65.6H150.019C150.166 65.6 150.286 65.6533 150.379 65.76C150.472 65.8533 150.519 65.9667 150.519 66.1V66.9C150.879 66.4867 151.306 66.1667 151.799 65.94C152.306 65.7133 152.872 65.6 153.499 65.6H154.379C154.512 65.6 154.626 65.6467 154.719 65.74C154.826 65.8333 154.879 65.9533 154.879 66.1V68.16C154.879 68.2933 154.826 68.4133 154.719 68.52C154.626 68.6133 154.512 68.66 154.379 68.66H152.439C151.892 68.66 151.466 68.8133 151.159 69.12C150.866 69.4133 150.719 69.8333 150.719 70.38V75.5C150.719 75.6467 150.666 75.7667 150.559 75.86C150.466 75.9533 150.346 76 150.199 76H147.719ZM160.083 76.2C159.443 76.2 158.863 76.1 158.343 75.9C157.837 75.6867 157.397 75.38 157.023 74.98C156.663 74.5667 156.383 74.0733 156.183 73.5C155.983 72.9133 155.87 72.2467 155.843 71.5C155.83 71.2333 155.823 71 155.823 70.8C155.823 70.5867 155.83 70.3533 155.843 70.1C155.87 69.38 155.983 68.7333 156.183 68.16C156.383 67.5867 156.663 67.0933 157.023 66.68C157.383 66.2667 157.823 65.9533 158.343 65.74C158.863 65.5133 159.443 65.4 160.083 65.4C160.75 65.4 161.323 65.5133 161.803 65.74C162.283 65.9533 162.69 66.2333 163.023 66.58V62.3C163.023 62.1533 163.07 62.0333 163.163 61.94C163.257 61.8467 163.377 61.8 163.523 61.8H165.963C166.097 61.8 166.21 61.8467 166.303 61.94C166.41 62.0333 166.463 62.1533 166.463 62.3V75.5C166.463 75.6467 166.41 75.7667 166.303 75.86C166.21 75.9533 166.097 76 165.963 76H163.703C163.557 76 163.437 75.9533 163.343 75.86C163.25 75.7667 163.203 75.6467 163.203 75.5V74.86C162.883 75.2467 162.47 75.5667 161.963 75.82C161.457 76.0733 160.83 76.2 160.083 76.2ZM161.163 73.52C161.617 73.52 161.97 73.4267 162.223 73.24C162.49 73.04 162.683 72.7867 162.803 72.48C162.937 72.1733 163.01 71.84 163.023 71.48C163.037 71.2133 163.043 70.96 163.043 70.72C163.043 70.48 163.037 70.2333 163.023 69.98C163.01 69.6467 162.937 69.34 162.803 69.06C162.67 68.7667 162.47 68.5333 162.203 68.36C161.937 68.1733 161.59 68.08 161.163 68.08C160.723 68.08 160.37 68.1733 160.103 68.36C159.85 68.5467 159.67 68.8 159.563 69.12C159.457 69.44 159.39 69.7933 159.363 70.18C159.323 70.5933 159.323 71.0067 159.363 71.42C159.39 71.8067 159.457 72.16 159.563 72.48C159.67 72.8 159.85 73.0533 160.103 73.24C160.37 73.4267 160.723 73.52 161.163 73.52ZM176.791 76C176.564 76 176.384 75.94 176.251 75.82C176.117 75.7 176.024 75.56 175.971 75.4L171.891 62.6C171.864 62.5333 171.851 62.4733 171.851 62.42C171.851 62.3133 171.891 62.22 171.971 62.14C172.064 62.0467 172.171 62 172.291 62H174.771C174.984 62 175.151 62.06 175.271 62.18C175.391 62.3 175.464 62.4133 175.491 62.52L178.311 71.76L181.151 62.52C181.191 62.4133 181.264 62.3 181.371 62.18C181.491 62.06 181.657 62 181.871 62H184.351C184.471 62 184.571 62.0467 184.651 62.14C184.744 62.22 184.791 62.3133 184.791 62.42C184.791 62.4733 184.777 62.5333 184.751 62.6L180.671 75.4C180.617 75.56 180.524 75.7 180.391 75.82C180.271 75.94 180.091 76 179.851 76H176.791ZM187.158 76C187.011 76 186.891 75.9533 186.798 75.86C186.704 75.7667 186.658 75.6467 186.658 75.5V62.5C186.658 62.3533 186.704 62.2333 186.798 62.14C186.891 62.0467 187.011 62 187.158 62H192.758C193.864 62 194.824 62.1733 195.638 62.52C196.464 62.8533 197.104 63.36 197.558 64.04C198.024 64.72 198.258 65.58 198.258 66.62C198.258 67.6467 198.024 68.4933 197.558 69.16C197.104 69.8267 196.464 70.32 195.638 70.64C194.824 70.96 193.864 71.12 192.758 71.12H190.378V75.5C190.378 75.6467 190.324 75.7667 190.218 75.86C190.124 75.9533 190.004 76 189.858 76H187.158ZM190.318 68.36H192.658C193.231 68.36 193.684 68.2133 194.018 67.92C194.364 67.6267 194.538 67.18 194.538 66.58C194.538 66.0733 194.391 65.6467 194.098 65.3C193.804 64.9533 193.324 64.78 192.658 64.78H190.318V68.36ZM200.673 76C200.527 76 200.407 75.9533 200.313 75.86C200.22 75.7667 200.173 75.6467 200.173 75.5V62.5C200.173 62.3533 200.22 62.2333 200.313 62.14C200.407 62.0467 200.527 62 200.673 62H202.793C203.02 62 203.18 62.0533 203.273 62.16C203.38 62.2533 203.447 62.3267 203.473 62.38L208.353 70.08V62.5C208.353 62.3533 208.4 62.2333 208.493 62.14C208.587 62.0467 208.707 62 208.853 62H211.253C211.4 62 211.52 62.0467 211.613 62.14C211.707 62.2333 211.753 62.3533 211.753 62.5V75.5C211.753 75.6333 211.707 75.7533 211.613 75.86C211.52 75.9533 211.4 76 211.253 76H209.113C208.9 76 208.74 75.9467 208.633 75.84C208.54 75.7333 208.48 75.66 208.453 75.62L203.573 68.22V75.5C203.573 75.6467 203.527 75.7667 203.433 75.86C203.34 75.9533 203.22 76 203.073 76H200.673Z" fill="white"/>
</svg>
