<svg xmlns="http://www.w3.org/2000/svg" viewBox="0 0 1479.42 1542.37"><defs><style>.cls-1{fill:#fff;}</style></defs><title>ISOTIPO NEGATIVO - SVG</title><g id="Capa_2" data-name="Capa 2"><g id="POSITIVO"><path class="cls-1" d="M739.71,57.87a69.25,69.25,0,0,1,21.47,3.4l378.46,123a69,69,0,0,1,34.74,25.24l233.9,321.92a69.06,69.06,0,0,1,13.27,40.84V970.14a69.06,69.06,0,0,1-13.27,40.84l-233.9,321.92a69,69,0,0,1-34.74,25.24l-378.45,123a69.52,69.52,0,0,1-43,0l-378.46-123A69,69,0,0,1,305,1332.9L71.14,1011a69.06,69.06,0,0,1-13.27-40.84V572.23a69.06,69.06,0,0,1,13.27-40.84L305,209.47a69,69,0,0,1,34.74-25.24l378.46-123a69.25,69.25,0,0,1,21.47-3.4m0-57.87a127.33,127.33,0,0,0-39.35,6.23l-378.46,123a126.59,126.59,0,0,0-63.68,46.27L24.32,497.37A126.59,126.59,0,0,0,0,572.23V970.14A126.59,126.59,0,0,0,24.32,1045l233.9,321.91a126.59,126.59,0,0,0,63.68,46.27l378.46,123a127.39,127.39,0,0,0,78.7,0l378.46-123a126.59,126.59,0,0,0,63.68-46.27L1455.1,1045a126.59,126.59,0,0,0,24.32-74.86V572.23a126.59,126.59,0,0,0-24.32-74.86L1221.2,175.46a126.59,126.59,0,0,0-63.68-46.27L779.06,6.23A127.33,127.33,0,0,0,739.71,0Z"/><path class="cls-1" d="M386.42,229.62,739.71,114.83,1093,229.62c2.12.69,4.18,1.49,6.25,2.3L974.13,404.13H505.29L380.17,231.92C382.23,231.11,384.3,230.31,386.42,229.62Z"/><path class="cls-1" d="M712.56,1422c-2.15-.56-4.29-1.12-6.41-1.81L386.42,1316.34a108.67,108.67,0,0,1-54.31-39.46l-197.6-272c-1.31-1.8-2.5-3.67-3.7-5.54l202.44-65.78,379.31,275.59Z"/><polygon class="cls-1" points="491 981.08 369.94 893.13 511.18 458.43 739.71 458.43 968.24 458.43 1109.48 893.13 988.42 981.08 739.71 458.43 491 981.08"/><path class="cls-1" d="M1344.91,1004.91l-197.61,272a108.6,108.6,0,0,1-54.3,39.46L773.27,1420.22c-2.12.69-4.26,1.25-6.41,1.81V1209.17l379.31-275.58,202.44,65.78C1347.41,1001.24,1346.21,1003.11,1344.91,1004.91Z"/></g></g></svg>